<svg xmlns="http://www.w3.org/2000/svg" xmlns:xlink="http://www.w3.org/1999/xlink" width="140" zoomAndPan="magnify" viewBox="0 0 104.88 104.999996" height="140" preserveAspectRatio="xMidYMid meet" version="1.0"><defs><clipPath id="d2291a9a61"><path d="M 0 0.0585938 L 104.761719 0.0585938 L 104.761719 104.9375 L 0 104.9375 Z M 0 0.0585938 " clip-rule="nonzero"/></clipPath><clipPath id="0f40350329"><path d="M 8.375 14 L 89 14 L 89 95 L 8.375 95 Z M 8.375 14 " clip-rule="nonzero"/></clipPath><clipPath id="c3e15c75fe"><path d="M 64 10 L 96.777344 10 L 96.777344 52 L 64 52 Z M 64 10 " clip-rule="nonzero"/></clipPath></defs><g clip-path="url(#d2291a9a61)"><path fill="#ffffff" d="M 0 0.0585938 L 104.878906 0.0585938 L 104.878906 104.941406 L 0 104.941406 Z M 0 0.0585938 " fill-opacity="1" fill-rule="nonzero"/><path fill="#ffffff" d="M 0 0.0585938 L 104.878906 0.0585938 L 104.878906 104.941406 L 0 104.941406 Z M 0 0.0585938 " fill-opacity="1" fill-rule="nonzero"/><path fill="#ff5757" d="M 0 0.0585938 L 104.878906 0.0585938 L 104.878906 104.941406 L 0 104.941406 Z M 0 0.0585938 " fill-opacity="1" fill-rule="nonzero"/></g><g clip-path="url(#0f40350329)"><path fill="#000000" d="M 70.058594 78.738281 C 68 80.609375 65.183594 81.402344 62.449219 80.886719 C 55.636719 79.605469 42.730469 76.734375 45.453125 73.753906 C 49.675781 69.128906 43.25 65.914062 36.617188 68.125 C 29.984375 70.335938 31.589844 62.492188 29.984375 55.863281 C 28.375 49.230469 30.785156 47.222656 27.773438 44.210938 C 25.363281 41.808594 25.167969 42.011719 23.789062 41.136719 C 22.835938 40.53125 22.175781 39.546875 21.980469 38.433594 C 21.78125 37.316406 22.066406 36.167969 22.757812 35.269531 C 23.566406 34.21875 24.40625 33.179688 24.707031 32.84375 C 27.90625 29.207031 36.1875 26.621094 36.453125 36.105469 C 36.621094 42.15625 45.492188 44.613281 48.390625 48.226562 C 51.285156 51.84375 56.3125 53.851562 55.910156 58.878906 C 55.507812 63.902344 63.144531 65.109375 62.742188 57.671875 C 62.742188 57.671875 62.742188 57.671875 62.742188 57.667969 C 62.675781 56.402344 62.15625 55.207031 61.289062 54.28125 C 59.707031 52.609375 58.757812 50.351562 58.757812 47.867188 L 58.757812 29.691406 C 58.757812 26.976562 60.402344 24.125 61.75 22.820312 C 62.96875 21.644531 65.582031 20.257812 68.003906 20.257812 L 68.914062 20.257812 C 62.910156 16.753906 55.890625 14.640625 48.394531 14.640625 C 26.324219 14.640625 8.375 32.621094 8.375 54.691406 C 8.375 76.757812 26.324219 94.765625 48.390625 94.765625 C 69.628906 94.765625 87.054688 78.042969 88.335938 57.277344 L 80.636719 57.277344 C 79.984375 65.671875 76.03125 73.316406 70.058594 78.738281 Z M 70.058594 78.738281 " fill-opacity="1" fill-rule="nonzero"/></g><g clip-path="url(#c3e15c75fe)"><path fill="#000000" d="M 93.21875 26.015625 L 90.019531 26.015625 L 90.019531 19.691406 C 90.019531 14.660156 86.046875 10.507812 81.015625 10.507812 L 80.054688 10.507812 C 75.023438 10.507812 71.011719 14.660156 71.011719 19.691406 L 71.011719 26.015625 L 68.0625 26.015625 C 66.101562 26.015625 64.507812 27.609375 64.507812 29.570312 L 64.507812 47.722656 C 64.507812 49.6875 66.101562 51.28125 68.0625 51.28125 L 93.21875 51.28125 C 95.183594 51.28125 96.777344 49.6875 96.777344 47.722656 L 96.777344 29.570312 C 96.777344 27.609375 95.183594 26.015625 93.21875 26.015625 Z M 84.269531 26.015625 L 76.765625 26.015625 L 76.765625 19.691406 C 76.765625 17.835938 78.203125 16.257812 80.054688 16.257812 L 81.015625 16.257812 C 82.871094 16.257812 84.269531 17.835938 84.269531 19.691406 Z M 84.269531 26.015625 " fill-opacity="1" fill-rule="nonzero"/></g></svg>